/usr/bin/start-video-rec.sh: line 93: kill: (499) - No such process
ffmpeg version 2.8.17-0ubuntu0.1 Copyright (c) 2000-2020 the FFmpeg developers
  built with gcc 5.4.0 (Ubuntu 5.4.0-6ubuntu1~16.04.12) 20160609
  configuration: --prefix=/usr --extra-version=0ubuntu0.1 --build-suffix=-ffmpeg --toolchain=hardened --libdir=/usr/lib/x86_64-linux-gnu --incdir=/usr/include/x86_64-linux-gnu --cc=cc --cxx=g++ --enable-gpl --enable-shared --disable-stripping --disable-decoder=libopenjpeg --disable-decoder=libschroedinger --enable-avresample --enable-avisynth --enable-gnutls --enable-ladspa --enable-libass --enable-libbluray --enable-libbs2b --enable-libcaca --enable-libcdio --enable-libflite --enable-libfontconfig --enable-libfreetype --enable-libfribidi --enable-libgme --enable-libgsm --enable-libmodplug --enable-libmp3lame --enable-libopenjpeg --enable-libopus --enable-libpulse --enable-librtmp --enable-libschroedinger --enable-libshine --enable-libsnappy --enable-libsoxr --enable-libspeex --enable-libssh --enable-libtheora --enable-libtwolame --enable-libvorbis --enable-libvpx --enable-libwavpack --enable-libwebp --enable-libx265 --enable-libxvid --enable-libzvbi --enable-openal --enable-opengl --enable-x11grab --enable-libdc1394 --enable-libiec61883 --enable-libzmq --enable-frei0r --enable-libx264 --enable-libopencv
  libavutil      54. 31.100 / 54. 31.100
  libavcodec     56. 60.100 / 56. 60.100
  libavformat    56. 40.101 / 56. 40.101
  libavdevice    56.  4.100 / 56.  4.100
  libavfilter     5. 40.101 /  5. 40.101
  libavresample   2.  1.  0 /  2.  1.  0
  libswscale      3.  1.101 /  3.  1.101
  libswresample   1.  2.101 /  1.  2.101
  libpostproc    53.  3.100 / 53.  3.100
Input #0, matroska,webm, from '/home/seluser/videos/vid_chrome_or_firefox_40001.mkv':
  Metadata:
    ENCODER         : Lavf56.40.101
  Duration: 00:01:55.80, start: 0.000000, bitrate: 67 kb/s
    Stream #0:0: Video: h264 (Constrained Baseline), yuv420p, 1366x768, SAR 1:1 DAR 683:384, 10 fps, 10 tbr, 1k tbn, 20 tbc (default)
    Metadata:
      ENCODER         : Lavc56.60.100 libx264
      DURATION        : 00:01:55.800000000
[libx264 @ 0x12eb660] using SAR=1/1
[libx264 @ 0x12eb660] using cpu capabilities: MMX2 SSE2Fast SSSE3 SSE4.2 AVX FMA3 AVX2 LZCNT BMI2
[libx264 @ 0x12eb660] profile Constrained Baseline, level 3.2
[libx264 @ 0x12eb660] 264 - core 148 r2643 5c65704 - H.264/MPEG-4 AVC codec - Copyleft 2003-2015 - http://www.videolan.org/x264.html - options: cabac=0 ref=1 deblock=0:0:0 analyse=0:0 me=dia subme=0 psy=1 psy_rd=1.00:0.00 mixed_ref=0 me_range=16 chroma_me=1 trellis=0 8x8dct=0 cqm=0 deadzone=21,11 fast_pskip=1 chroma_qp_offset=0 threads=3 lookahead_threads=1 sliced_threads=0 nr=0 decimate=1 interlaced=0 bluray_compat=0 constrained_intra=0 bframes=0 weightp=0 keyint=250 keyint_min=10 scenecut=0 intra_refresh=0 rc=crf mbtree=0 crf=23.0 qcomp=0.60 qpmin=0 qpmax=69 qpstep=4 ip_ratio=1.40 aq=0
Output #0, mp4, to '/home/seluser/videos/vid_chrome_or_firefox_40001.mp4':
  Metadata:
    encoder         : Lavf56.40.101
    Stream #0:0: Video: h264 (libx264) ([33][0][0][0] / 0x0021), yuv420p, 1366x768 [SAR 1:1 DAR 683:384], q=-1--1, 10 fps, 10240 tbn, 10 tbc (default)
    Metadata:
      DURATION        : 00:01:55.800000000
      encoder         : Lavc56.60.100 libx264
Stream mapping:
  Stream #0:0 -> #0:0 (h264 (native) -> h264 (libx264))
Press [q] to stop, [?] for help
frame=   44 fps=0.0 q=17.0 size=     107kB time=00:00:04.00 bitrate= 219.9kbits/s    
frame=   87 fps= 86 q=9.0 size=     244kB time=00:00:08.30 bitrate= 240.7kbits/s    
frame=  130 fps= 86 q=9.0 size=     279kB time=00:00:12.60 bitrate= 181.4kbits/s    
frame=  194 fps= 96 q=9.0 size=     281kB time=00:00:19.00 bitrate= 121.1kbits/s    
frame=  272 fps=108 q=9.0 size=     442kB time=00:00:26.80 bitrate= 135.1kbits/s    
frame=  361 fps=119 q=9.0 size=     444kB time=00:00:35.70 bitrate= 101.9kbits/s    
frame=  451 fps=128 q=9.0 size=     446kB time=00:00:44.70 bitrate=  81.7kbits/s    
frame=  503 fps=125 q=6.0 size=     447kB time=00:00:49.90 bitrate=  73.4kbits/s    
frame=  572 fps=126 q=9.0 size=     607kB time=00:00:56.80 bitrate=  87.6kbits/s    
frame=  643 fps=128 q=9.0 size=     609kB time=00:01:03.90 bitrate=  78.1kbits/s    
frame=  724 fps=131 q=9.0 size=     610kB time=00:01:12.00 bitrate=  69.5kbits/s    
frame=  752 fps=124 q=9.0 size=     611kB time=00:01:14.80 bitrate=  66.9kbits/s    
frame=  771 fps=117 q=9.0 size=     770kB time=00:01:16.70 bitrate=  82.3kbits/s    
frame=  787 fps=109 q=9.0 size=     771kB time=00:01:18.30 bitrate=  80.6kbits/s    
frame=  816 fps=105 q=9.0 size=     771kB time=00:01:21.20 bitrate=  77.8kbits/s    
frame=  837 fps=101 q=9.0 size=     772kB time=00:01:23.30 bitrate=  75.9kbits/s    
frame=  858 fps= 97 q=9.0 size=     772kB time=00:01:25.40 bitrate=  74.1kbits/s    
frame=  879 fps= 94 q=9.0 size=     773kB time=00:01:27.50 bitrate=  72.3kbits/s    
frame=  929 fps= 94 q=9.0 size=     774kB time=00:01:32.50 bitrate=  68.5kbits/s    
frame=  963 fps= 93 q=9.0 size=     775kB time=00:01:35.90 bitrate=  66.2kbits/s    
frame= 1026 fps= 94 q=9.0 size=     935kB time=00:01:42.20 bitrate=  74.9kbits/s    
frame= 1110 fps= 98 q=9.0 size=     937kB time=00:01:50.60 bitrate=  69.4kbits/s    
frame= 1158 fps= 97 q=-1.0 Lsize=     948kB time=00:01:55.80 bitrate=  67.1kbits/s    
video:943kB audio:0kB subtitle:0kB other streams:0kB global headers:0kB muxing overhead: 0.565982%
[libx264 @ 0x12eb660] frame I:5     Avg QP: 8.80  size:133103
[libx264 @ 0x12eb660] frame P:1153  Avg QP: 9.28  size:   260
[libx264 @ 0x12eb660] mb I  I16..4: 100.0%  0.0%  0.0%
[libx264 @ 0x12eb660] mb P  I16..4:  0.3%  0.0%  0.0%  P16..4:  0.2%  0.0%  0.0%  0.0%  0.0%    skip:99.5%
[libx264 @ 0x12eb660] coded y,uvDC,uvAC intra: 18.4% 14.7% 14.2% inter: 0.1% 0.1% 0.1%
[libx264 @ 0x12eb660] i16 v,h,dc,p: 72% 26%  2%  0%
[libx264 @ 0x12eb660] i8c dc,h,v,p: 73% 22%  5%  0%
[libx264 @ 0x12eb660] kb/s:66.67
